<svg width="350" height="100%" viewBox="0 0 85 38" fill="none" xmlns="http://www.w3.org/2000/svg">
                <path d="M26.5146 23.1084V29.4561H0.928711L0.44043 24.4268L14.7227 1.45312H21.2168L14.1611 13.001L8.30176 23.1084H26.5146ZM22.9258 1.45312V37H14.6982V1.45312H22.9258ZM54.8838 15.9795V22.4736C54.8838 25.029 54.5827 27.2507 53.9805 29.1387C53.3945 31.0267 52.5482 32.5892 51.4414 33.8262C50.3509 35.0632 49.0488 35.9827 47.5352 36.585C46.0215 37.1872 44.3532 37.4883 42.5303 37.4883C41.0654 37.4883 39.6982 37.3011 38.4287 36.9268C37.1592 36.5361 36.0117 35.9502 34.9863 35.1689C33.9772 34.3714 33.1064 33.3786 32.374 32.1904C31.6416 31.0023 31.0801 29.6025 30.6895 27.9912C30.2988 26.3636 30.1035 24.5244 30.1035 22.4736V15.9795C30.1035 13.4079 30.3965 11.1862 30.9824 9.31445C31.5846 7.42643 32.4391 5.86393 33.5459 4.62695C34.6527 3.38997 35.9629 2.47038 37.4766 1.86816C38.9902 1.26595 40.6585 0.964844 42.4814 0.964844C43.9463 0.964844 45.3053 1.16016 46.5586 1.55078C47.8281 1.92513 48.9756 2.51107 50.001 3.30859C51.0264 4.08984 51.8971 5.07454 52.6133 6.2627C53.3457 7.45085 53.9072 8.85872 54.2979 10.4863C54.6885 12.0977 54.8838 13.9287 54.8838 15.9795ZM46.6562 23.4746V14.9297C46.6562 13.7904 46.5911 12.7975 46.4609 11.9512C46.347 11.1048 46.168 10.3887 45.9238 9.80273C45.696 9.2168 45.4111 8.74479 45.0693 8.38672C44.7275 8.01237 44.3369 7.74382 43.8975 7.58105C43.4743 7.40202 43.0023 7.3125 42.4814 7.3125C41.8304 7.3125 41.2445 7.45085 40.7236 7.72754C40.2191 7.98796 39.7878 8.41113 39.4297 8.99707C39.0716 9.58301 38.7949 10.3643 38.5996 11.3408C38.4206 12.3174 38.3311 13.5137 38.3311 14.9297V23.4746C38.3311 24.6302 38.388 25.6393 38.502 26.502C38.6322 27.3483 38.8112 28.0726 39.0391 28.6748C39.2832 29.2607 39.5762 29.7409 39.918 30.1152C40.2598 30.4733 40.6504 30.7337 41.0898 30.8965C41.5293 31.0592 42.0094 31.1406 42.5303 31.1406C43.165 31.1406 43.7347 31.0104 44.2393 30.75C44.7438 30.4896 45.1751 30.0664 45.5332 29.4805C45.9076 28.8783 46.1842 28.0889 46.3633 27.1123C46.5586 26.1195 46.6562 24.9069 46.6562 23.4746ZM84.5225 23.1084V29.4561H58.9365L58.4482 24.4268L72.7305 1.45312H79.2246L72.1689 13.001L66.3096 23.1084H84.5225ZM80.9336 1.45312V37H72.7061V1.45312H80.9336Z" fill="url(#paint0_linear_1_2)"/>
                <defs>
                    <linearGradient id="paint0_linear_1_2" x1="3.5" y1="-6" x2="98.5" y2="42.5" gradientUnits="userSpaceOnUse">
                        <stop offset="0.0001" stop-color="#9E00FF" stop-opacity="0.8"/>
                        <stop offset="0.364903" stop-color="#8F00FF"/>
                        <stop offset="1" stop-color="#0075FF"/>
                    </linearGradient>
                </defs>
            </svg>